<mxfile host="Electron" modified="2024-04-11T12:51:39.518Z" agent="Mozilla/5.0 (Windows NT 10.0; Win64; x64) AppleWebKit/537.36 (KHTML, like Gecko) draw.io/23.1.5 Chrome/120.0.6099.109 Electron/28.1.0 Safari/537.36" etag="AKpUScv8EBVPOS5OjKXo" version="23.1.5" type="device">
  <diagram name="Page-1" id="RFBm_gov8BBQ_nhxY0hs">
    <mxGraphModel dx="1034" dy="511" grid="1" gridSize="10" guides="1" tooltips="1" connect="1" arrows="1" fold="1" page="1" pageScale="1" pageWidth="850" pageHeight="1100" math="0" shadow="0">
      <root>
        <mxCell id="0" />
        <mxCell id="1" parent="0" />
        <mxCell id="MmfHxSCBlfVOSuIhpBJj-1" value="&lt;b&gt;Library Management System&lt;/b&gt;" style="swimlane;fontStyle=0;align=center;verticalAlign=top;childLayout=stackLayout;horizontal=1;startSize=30;horizontalStack=0;resizeParent=1;resizeParentMax=0;resizeLast=0;collapsible=0;marginBottom=0;html=1;whiteSpace=wrap;" parent="1" vertex="1">
          <mxGeometry x="360" y="21" width="200" height="180" as="geometry" />
        </mxCell>
        <mxCell id="MmfHxSCBlfVOSuIhpBJj-2" value="+UserType" style="text;html=1;strokeColor=none;fillColor=none;align=left;verticalAlign=middle;spacingLeft=4;spacingRight=4;overflow=hidden;rotatable=0;points=[[0,0.5],[1,0.5]];portConstraint=eastwest;whiteSpace=wrap;" parent="MmfHxSCBlfVOSuIhpBJj-1" vertex="1">
          <mxGeometry y="30" width="200" height="20" as="geometry" />
        </mxCell>
        <mxCell id="MmfHxSCBlfVOSuIhpBJj-3" value="+UserName" style="text;html=1;strokeColor=none;fillColor=none;align=left;verticalAlign=middle;spacingLeft=4;spacingRight=4;overflow=hidden;rotatable=0;points=[[0,0.5],[1,0.5]];portConstraint=eastwest;whiteSpace=wrap;" parent="MmfHxSCBlfVOSuIhpBJj-1" vertex="1">
          <mxGeometry y="50" width="200" height="20" as="geometry" />
        </mxCell>
        <mxCell id="MmfHxSCBlfVOSuIhpBJj-4" value="&lt;font color=&quot;#000000&quot;&gt;+Password&lt;/font&gt;" style="text;html=1;strokeColor=none;fillColor=none;align=left;verticalAlign=middle;spacingLeft=4;spacingRight=4;overflow=hidden;rotatable=0;points=[[0,0.5],[1,0.5]];portConstraint=eastwest;fontColor=#808080;whiteSpace=wrap;" parent="MmfHxSCBlfVOSuIhpBJj-1" vertex="1">
          <mxGeometry y="70" width="200" height="20" as="geometry" />
        </mxCell>
        <mxCell id="MmfHxSCBlfVOSuIhpBJj-5" value="+OTP: INT" style="text;html=1;strokeColor=none;fillColor=none;align=left;verticalAlign=middle;spacingLeft=4;spacingRight=4;overflow=hidden;rotatable=0;points=[[0,0.5],[1,0.5]];portConstraint=eastwest;whiteSpace=wrap;" parent="MmfHxSCBlfVOSuIhpBJj-1" vertex="1">
          <mxGeometry y="90" width="200" height="20" as="geometry" />
        </mxCell>
        <mxCell id="MmfHxSCBlfVOSuIhpBJj-6" value="" style="line;strokeWidth=1;fillColor=none;align=left;verticalAlign=middle;spacingTop=-1;spacingLeft=3;spacingRight=3;rotatable=0;labelPosition=right;points=[];portConstraint=eastwest;" parent="MmfHxSCBlfVOSuIhpBJj-1" vertex="1">
          <mxGeometry y="110" width="200" height="8" as="geometry" />
        </mxCell>
        <mxCell id="MmfHxSCBlfVOSuIhpBJj-8" value="+SignUp()" style="text;html=1;strokeColor=none;fillColor=none;align=left;verticalAlign=middle;spacingLeft=4;spacingRight=4;overflow=hidden;rotatable=0;points=[[0,0.5],[1,0.5]];portConstraint=eastwest;whiteSpace=wrap;" parent="MmfHxSCBlfVOSuIhpBJj-1" vertex="1">
          <mxGeometry y="118" width="200" height="22" as="geometry" />
        </mxCell>
        <mxCell id="MmfHxSCBlfVOSuIhpBJj-72" value="+Login()" style="text;html=1;strokeColor=none;fillColor=none;align=left;verticalAlign=middle;spacingLeft=4;spacingRight=4;overflow=hidden;rotatable=0;points=[[0,0.5],[1,0.5]];portConstraint=eastwest;whiteSpace=wrap;" parent="MmfHxSCBlfVOSuIhpBJj-1" vertex="1">
          <mxGeometry y="140" width="200" height="20" as="geometry" />
        </mxCell>
        <mxCell id="MmfHxSCBlfVOSuIhpBJj-73" value="+Logout()" style="text;html=1;strokeColor=none;fillColor=none;align=left;verticalAlign=middle;spacingLeft=4;spacingRight=4;overflow=hidden;rotatable=0;points=[[0,0.5],[1,0.5]];portConstraint=eastwest;whiteSpace=wrap;" parent="MmfHxSCBlfVOSuIhpBJj-1" vertex="1">
          <mxGeometry y="160" width="200" height="20" as="geometry" />
        </mxCell>
        <mxCell id="MmfHxSCBlfVOSuIhpBJj-9" value="&lt;b&gt;User&lt;/b&gt;" style="swimlane;fontStyle=0;align=center;verticalAlign=top;childLayout=stackLayout;horizontal=1;startSize=30;horizontalStack=0;resizeParent=1;resizeParentMax=0;resizeLast=0;collapsible=0;marginBottom=0;html=1;whiteSpace=wrap;" parent="1" vertex="1">
          <mxGeometry x="120" y="240" width="160" height="180" as="geometry" />
        </mxCell>
        <mxCell id="MmfHxSCBlfVOSuIhpBJj-11" value="+Name" style="text;html=1;strokeColor=none;fillColor=none;align=left;verticalAlign=middle;spacingLeft=4;spacingRight=4;overflow=hidden;rotatable=0;points=[[0,0.5],[1,0.5]];portConstraint=eastwest;whiteSpace=wrap;" parent="MmfHxSCBlfVOSuIhpBJj-9" vertex="1">
          <mxGeometry y="30" width="160" height="20" as="geometry" />
        </mxCell>
        <mxCell id="MmfHxSCBlfVOSuIhpBJj-12" value="&lt;font color=&quot;#000000&quot;&gt;+ID&lt;/font&gt;" style="text;html=1;strokeColor=none;fillColor=none;align=left;verticalAlign=middle;spacingLeft=4;spacingRight=4;overflow=hidden;rotatable=0;points=[[0,0.5],[1,0.5]];portConstraint=eastwest;fontColor=#808080;whiteSpace=wrap;" parent="MmfHxSCBlfVOSuIhpBJj-9" vertex="1">
          <mxGeometry y="50" width="160" height="20" as="geometry" />
        </mxCell>
        <mxCell id="MmfHxSCBlfVOSuIhpBJj-13" value="+Branch" style="text;html=1;strokeColor=none;fillColor=none;align=left;verticalAlign=middle;spacingLeft=4;spacingRight=4;overflow=hidden;rotatable=0;points=[[0,0.5],[1,0.5]];portConstraint=eastwest;whiteSpace=wrap;" parent="MmfHxSCBlfVOSuIhpBJj-9" vertex="1">
          <mxGeometry y="70" width="160" height="20" as="geometry" />
        </mxCell>
        <mxCell id="MmfHxSCBlfVOSuIhpBJj-33" value="+MobNo" style="text;html=1;strokeColor=none;fillColor=none;align=left;verticalAlign=middle;spacingLeft=4;spacingRight=4;overflow=hidden;rotatable=0;points=[[0,0.5],[1,0.5]];portConstraint=eastwest;whiteSpace=wrap;" parent="MmfHxSCBlfVOSuIhpBJj-9" vertex="1">
          <mxGeometry y="90" width="160" height="20" as="geometry" />
        </mxCell>
        <mxCell id="MmfHxSCBlfVOSuIhpBJj-14" value="" style="line;strokeWidth=1;fillColor=none;align=left;verticalAlign=middle;spacingTop=-1;spacingLeft=3;spacingRight=3;rotatable=0;labelPosition=right;points=[];portConstraint=eastwest;" parent="MmfHxSCBlfVOSuIhpBJj-9" vertex="1">
          <mxGeometry y="110" width="160" height="10" as="geometry" />
        </mxCell>
        <mxCell id="MmfHxSCBlfVOSuIhpBJj-34" value="+SearchForBook()" style="text;html=1;strokeColor=none;fillColor=none;align=left;verticalAlign=middle;spacingLeft=4;spacingRight=4;overflow=hidden;rotatable=0;points=[[0,0.5],[1,0.5]];portConstraint=eastwest;whiteSpace=wrap;" parent="MmfHxSCBlfVOSuIhpBJj-9" vertex="1">
          <mxGeometry y="120" width="160" height="20" as="geometry" />
        </mxCell>
        <mxCell id="MmfHxSCBlfVOSuIhpBJj-36" value="+VerifyDetails()" style="text;html=1;strokeColor=none;fillColor=none;align=left;verticalAlign=middle;spacingLeft=4;spacingRight=4;overflow=hidden;rotatable=0;points=[[0,0.5],[1,0.5]];portConstraint=eastwest;whiteSpace=wrap;" parent="MmfHxSCBlfVOSuIhpBJj-9" vertex="1">
          <mxGeometry y="140" width="160" height="20" as="geometry" />
        </mxCell>
        <mxCell id="MmfHxSCBlfVOSuIhpBJj-35" value="+CheckSelfAccount()" style="text;html=1;strokeColor=none;fillColor=none;align=left;verticalAlign=middle;spacingLeft=4;spacingRight=4;overflow=hidden;rotatable=0;points=[[0,0.5],[1,0.5]];portConstraint=eastwest;whiteSpace=wrap;" parent="MmfHxSCBlfVOSuIhpBJj-9" vertex="1">
          <mxGeometry y="160" width="160" height="20" as="geometry" />
        </mxCell>
        <mxCell id="MmfHxSCBlfVOSuIhpBJj-37" value="&lt;b&gt;Student&lt;/b&gt;" style="swimlane;fontStyle=0;align=center;verticalAlign=top;childLayout=stackLayout;horizontal=1;startSize=30;horizontalStack=0;resizeParent=1;resizeParentMax=0;resizeLast=0;collapsible=0;marginBottom=0;html=1;whiteSpace=wrap;" parent="1" vertex="1">
          <mxGeometry x="80" y="539" width="160" height="180" as="geometry" />
        </mxCell>
        <mxCell id="MmfHxSCBlfVOSuIhpBJj-38" value="+Department" style="text;html=1;strokeColor=none;fillColor=none;align=left;verticalAlign=middle;spacingLeft=4;spacingRight=4;overflow=hidden;rotatable=0;points=[[0,0.5],[1,0.5]];portConstraint=eastwest;whiteSpace=wrap;" parent="MmfHxSCBlfVOSuIhpBJj-37" vertex="1">
          <mxGeometry y="30" width="160" height="20" as="geometry" />
        </mxCell>
        <mxCell id="MmfHxSCBlfVOSuIhpBJj-39" value="&lt;font color=&quot;#000000&quot;&gt;+Email&lt;/font&gt;" style="text;html=1;strokeColor=none;fillColor=none;align=left;verticalAlign=middle;spacingLeft=4;spacingRight=4;overflow=hidden;rotatable=0;points=[[0,0.5],[1,0.5]];portConstraint=eastwest;fontColor=#808080;whiteSpace=wrap;" parent="MmfHxSCBlfVOSuIhpBJj-37" vertex="1">
          <mxGeometry y="50" width="160" height="20" as="geometry" />
        </mxCell>
        <mxCell id="MmfHxSCBlfVOSuIhpBJj-42" value="" style="line;strokeWidth=1;fillColor=none;align=left;verticalAlign=middle;spacingTop=-1;spacingLeft=3;spacingRight=3;rotatable=0;labelPosition=right;points=[];portConstraint=eastwest;" parent="MmfHxSCBlfVOSuIhpBJj-37" vertex="1">
          <mxGeometry y="70" width="160" height="10" as="geometry" />
        </mxCell>
        <mxCell id="MmfHxSCBlfVOSuIhpBJj-43" value="+IssueBook()" style="text;html=1;strokeColor=none;fillColor=none;align=left;verticalAlign=middle;spacingLeft=4;spacingRight=4;overflow=hidden;rotatable=0;points=[[0,0.5],[1,0.5]];portConstraint=eastwest;whiteSpace=wrap;" parent="MmfHxSCBlfVOSuIhpBJj-37" vertex="1">
          <mxGeometry y="80" width="160" height="20" as="geometry" />
        </mxCell>
        <mxCell id="MmfHxSCBlfVOSuIhpBJj-44" value="+RenewBook()" style="text;html=1;strokeColor=none;fillColor=none;align=left;verticalAlign=middle;spacingLeft=4;spacingRight=4;overflow=hidden;rotatable=0;points=[[0,0.5],[1,0.5]];portConstraint=eastwest;whiteSpace=wrap;" parent="MmfHxSCBlfVOSuIhpBJj-37" vertex="1">
          <mxGeometry y="100" width="160" height="20" as="geometry" />
        </mxCell>
        <mxCell id="MmfHxSCBlfVOSuIhpBJj-46" value="+ReturnBook()" style="text;html=1;strokeColor=none;fillColor=none;align=left;verticalAlign=middle;spacingLeft=4;spacingRight=4;overflow=hidden;rotatable=0;points=[[0,0.5],[1,0.5]];portConstraint=eastwest;whiteSpace=wrap;" parent="MmfHxSCBlfVOSuIhpBJj-37" vertex="1">
          <mxGeometry y="120" width="160" height="20" as="geometry" />
        </mxCell>
        <mxCell id="MmfHxSCBlfVOSuIhpBJj-49" value="+PayFine()" style="text;html=1;strokeColor=none;fillColor=none;align=left;verticalAlign=middle;spacingLeft=4;spacingRight=4;overflow=hidden;rotatable=0;points=[[0,0.5],[1,0.5]];portConstraint=eastwest;whiteSpace=wrap;" parent="MmfHxSCBlfVOSuIhpBJj-37" vertex="1">
          <mxGeometry y="140" width="160" height="20" as="geometry" />
        </mxCell>
        <mxCell id="MmfHxSCBlfVOSuIhpBJj-48" value="+Feedback()" style="text;html=1;strokeColor=none;fillColor=none;align=left;verticalAlign=middle;spacingLeft=4;spacingRight=4;overflow=hidden;rotatable=0;points=[[0,0.5],[1,0.5]];portConstraint=eastwest;whiteSpace=wrap;" parent="MmfHxSCBlfVOSuIhpBJj-37" vertex="1">
          <mxGeometry y="160" width="160" height="20" as="geometry" />
        </mxCell>
        <mxCell id="MmfHxSCBlfVOSuIhpBJj-50" value="&lt;b&gt;Librarian&lt;/b&gt;" style="swimlane;fontStyle=0;align=center;verticalAlign=top;childLayout=stackLayout;horizontal=1;startSize=30;horizontalStack=0;resizeParent=1;resizeParentMax=0;resizeLast=0;collapsible=0;marginBottom=0;html=1;whiteSpace=wrap;" parent="1" vertex="1">
          <mxGeometry x="280" y="538" width="160" height="160" as="geometry" />
        </mxCell>
        <mxCell id="MmfHxSCBlfVOSuIhpBJj-53" value="" style="line;strokeWidth=1;fillColor=none;align=left;verticalAlign=middle;spacingTop=-1;spacingLeft=3;spacingRight=3;rotatable=0;labelPosition=right;points=[];portConstraint=eastwest;" parent="MmfHxSCBlfVOSuIhpBJj-50" vertex="1">
          <mxGeometry y="30" width="160" height="10" as="geometry" />
        </mxCell>
        <mxCell id="MmfHxSCBlfVOSuIhpBJj-54" value="+AddBook()" style="text;html=1;strokeColor=none;fillColor=none;align=left;verticalAlign=middle;spacingLeft=4;spacingRight=4;overflow=hidden;rotatable=0;points=[[0,0.5],[1,0.5]];portConstraint=eastwest;whiteSpace=wrap;" parent="MmfHxSCBlfVOSuIhpBJj-50" vertex="1">
          <mxGeometry y="40" width="160" height="20" as="geometry" />
        </mxCell>
        <mxCell id="MmfHxSCBlfVOSuIhpBJj-55" value="+DeleteBook()" style="text;html=1;strokeColor=none;fillColor=none;align=left;verticalAlign=middle;spacingLeft=4;spacingRight=4;overflow=hidden;rotatable=0;points=[[0,0.5],[1,0.5]];portConstraint=eastwest;whiteSpace=wrap;" parent="MmfHxSCBlfVOSuIhpBJj-50" vertex="1">
          <mxGeometry y="60" width="160" height="20" as="geometry" />
        </mxCell>
        <mxCell id="MmfHxSCBlfVOSuIhpBJj-56" value="+ApproveBook()" style="text;html=1;strokeColor=none;fillColor=none;align=left;verticalAlign=middle;spacingLeft=4;spacingRight=4;overflow=hidden;rotatable=0;points=[[0,0.5],[1,0.5]];portConstraint=eastwest;whiteSpace=wrap;" parent="MmfHxSCBlfVOSuIhpBJj-50" vertex="1">
          <mxGeometry y="80" width="160" height="20" as="geometry" />
        </mxCell>
        <mxCell id="MmfHxSCBlfVOSuIhpBJj-57" value="+RemindForRenew()" style="text;html=1;strokeColor=none;fillColor=none;align=left;verticalAlign=middle;spacingLeft=4;spacingRight=4;overflow=hidden;rotatable=0;points=[[0,0.5],[1,0.5]];portConstraint=eastwest;whiteSpace=wrap;" parent="MmfHxSCBlfVOSuIhpBJj-50" vertex="1">
          <mxGeometry y="100" width="160" height="20" as="geometry" />
        </mxCell>
        <mxCell id="MmfHxSCBlfVOSuIhpBJj-58" value="+ShowFine()" style="text;html=1;strokeColor=none;fillColor=none;align=left;verticalAlign=middle;spacingLeft=4;spacingRight=4;overflow=hidden;rotatable=0;points=[[0,0.5],[1,0.5]];portConstraint=eastwest;whiteSpace=wrap;" parent="MmfHxSCBlfVOSuIhpBJj-50" vertex="1">
          <mxGeometry y="120" width="160" height="20" as="geometry" />
        </mxCell>
        <mxCell id="MmfHxSCBlfVOSuIhpBJj-60" value="+UpdateForBooks()" style="text;html=1;strokeColor=none;fillColor=none;align=left;verticalAlign=middle;spacingLeft=4;spacingRight=4;overflow=hidden;rotatable=0;points=[[0,0.5],[1,0.5]];portConstraint=eastwest;whiteSpace=wrap;" parent="MmfHxSCBlfVOSuIhpBJj-50" vertex="1">
          <mxGeometry y="140" width="160" height="20" as="geometry" />
        </mxCell>
        <mxCell id="MmfHxSCBlfVOSuIhpBJj-61" value="&lt;b&gt;Faculty&lt;/b&gt;" style="swimlane;fontStyle=0;align=center;verticalAlign=top;childLayout=stackLayout;horizontal=1;startSize=30;horizontalStack=0;resizeParent=1;resizeParentMax=0;resizeLast=0;collapsible=0;marginBottom=0;html=1;whiteSpace=wrap;" parent="1" vertex="1">
          <mxGeometry x="480" y="538" width="160" height="120" as="geometry" />
        </mxCell>
        <mxCell id="MmfHxSCBlfVOSuIhpBJj-62" value="+Department" style="text;html=1;strokeColor=none;fillColor=none;align=left;verticalAlign=middle;spacingLeft=4;spacingRight=4;overflow=hidden;rotatable=0;points=[[0,0.5],[1,0.5]];portConstraint=eastwest;whiteSpace=wrap;" parent="MmfHxSCBlfVOSuIhpBJj-61" vertex="1">
          <mxGeometry y="30" width="160" height="20" as="geometry" />
        </mxCell>
        <mxCell id="MmfHxSCBlfVOSuIhpBJj-63" value="&lt;font color=&quot;#000000&quot;&gt;+Email&lt;/font&gt;" style="text;html=1;strokeColor=none;fillColor=none;align=left;verticalAlign=middle;spacingLeft=4;spacingRight=4;overflow=hidden;rotatable=0;points=[[0,0.5],[1,0.5]];portConstraint=eastwest;fontColor=#808080;whiteSpace=wrap;" parent="MmfHxSCBlfVOSuIhpBJj-61" vertex="1">
          <mxGeometry y="50" width="160" height="20" as="geometry" />
        </mxCell>
        <mxCell id="MmfHxSCBlfVOSuIhpBJj-64" value="" style="line;strokeWidth=1;fillColor=none;align=left;verticalAlign=middle;spacingTop=-1;spacingLeft=3;spacingRight=3;rotatable=0;labelPosition=right;points=[];portConstraint=eastwest;" parent="MmfHxSCBlfVOSuIhpBJj-61" vertex="1">
          <mxGeometry y="70" width="160" height="10" as="geometry" />
        </mxCell>
        <mxCell id="MmfHxSCBlfVOSuIhpBJj-65" value="+IssueBook()" style="text;html=1;strokeColor=none;fillColor=none;align=left;verticalAlign=middle;spacingLeft=4;spacingRight=4;overflow=hidden;rotatable=0;points=[[0,0.5],[1,0.5]];portConstraint=eastwest;whiteSpace=wrap;" parent="MmfHxSCBlfVOSuIhpBJj-61" vertex="1">
          <mxGeometry y="80" width="160" height="20" as="geometry" />
        </mxCell>
        <mxCell id="MmfHxSCBlfVOSuIhpBJj-69" value="+Feedback()" style="text;html=1;strokeColor=none;fillColor=none;align=left;verticalAlign=middle;spacingLeft=4;spacingRight=4;overflow=hidden;rotatable=0;points=[[0,0.5],[1,0.5]];portConstraint=eastwest;whiteSpace=wrap;" parent="MmfHxSCBlfVOSuIhpBJj-61" vertex="1">
          <mxGeometry y="100" width="160" height="20" as="geometry" />
        </mxCell>
        <mxCell id="MmfHxSCBlfVOSuIhpBJj-74" value="&lt;b&gt;Book&lt;/b&gt;" style="swimlane;fontStyle=0;align=center;verticalAlign=top;childLayout=stackLayout;horizontal=1;startSize=30;horizontalStack=0;resizeParent=1;resizeParentMax=0;resizeLast=0;collapsible=0;marginBottom=0;html=1;whiteSpace=wrap;" parent="1" vertex="1">
          <mxGeometry x="400" y="240" width="160" height="220" as="geometry" />
        </mxCell>
        <mxCell id="MmfHxSCBlfVOSuIhpBJj-75" value="+Title" style="text;html=1;strokeColor=none;fillColor=none;align=left;verticalAlign=middle;spacingLeft=4;spacingRight=4;overflow=hidden;rotatable=0;points=[[0,0.5],[1,0.5]];portConstraint=eastwest;whiteSpace=wrap;" parent="MmfHxSCBlfVOSuIhpBJj-74" vertex="1">
          <mxGeometry y="30" width="160" height="20" as="geometry" />
        </mxCell>
        <mxCell id="MmfHxSCBlfVOSuIhpBJj-76" value="&lt;font color=&quot;#000000&quot;&gt;+AuthorName&lt;/font&gt;" style="text;html=1;strokeColor=none;fillColor=none;align=left;verticalAlign=middle;spacingLeft=4;spacingRight=4;overflow=hidden;rotatable=0;points=[[0,0.5],[1,0.5]];portConstraint=eastwest;fontColor=#808080;whiteSpace=wrap;" parent="MmfHxSCBlfVOSuIhpBJj-74" vertex="1">
          <mxGeometry y="50" width="160" height="20" as="geometry" />
        </mxCell>
        <mxCell id="MmfHxSCBlfVOSuIhpBJj-77" value="+PublisherName" style="text;html=1;strokeColor=none;fillColor=none;align=left;verticalAlign=middle;spacingLeft=4;spacingRight=4;overflow=hidden;rotatable=0;points=[[0,0.5],[1,0.5]];portConstraint=eastwest;whiteSpace=wrap;" parent="MmfHxSCBlfVOSuIhpBJj-74" vertex="1">
          <mxGeometry y="70" width="160" height="20" as="geometry" />
        </mxCell>
        <mxCell id="MmfHxSCBlfVOSuIhpBJj-78" value="+ISBNNo" style="text;html=1;strokeColor=none;fillColor=none;align=left;verticalAlign=middle;spacingLeft=4;spacingRight=4;overflow=hidden;rotatable=0;points=[[0,0.5],[1,0.5]];portConstraint=eastwest;whiteSpace=wrap;" parent="MmfHxSCBlfVOSuIhpBJj-74" vertex="1">
          <mxGeometry y="90" width="160" height="20" as="geometry" />
        </mxCell>
        <mxCell id="MmfHxSCBlfVOSuIhpBJj-83" value="+Price" style="text;html=1;strokeColor=none;fillColor=none;align=left;verticalAlign=middle;spacingLeft=4;spacingRight=4;overflow=hidden;rotatable=0;points=[[0,0.5],[1,0.5]];portConstraint=eastwest;whiteSpace=wrap;" parent="MmfHxSCBlfVOSuIhpBJj-74" vertex="1">
          <mxGeometry y="110" width="160" height="20" as="geometry" />
        </mxCell>
        <mxCell id="MmfHxSCBlfVOSuIhpBJj-79" value="" style="line;strokeWidth=1;fillColor=none;align=left;verticalAlign=middle;spacingTop=-1;spacingLeft=3;spacingRight=3;rotatable=0;labelPosition=right;points=[];portConstraint=eastwest;" parent="MmfHxSCBlfVOSuIhpBJj-74" vertex="1">
          <mxGeometry y="130" width="160" height="10" as="geometry" />
        </mxCell>
        <mxCell id="MmfHxSCBlfVOSuIhpBJj-80" value="+IssuedStatus()" style="text;html=1;strokeColor=none;fillColor=none;align=left;verticalAlign=middle;spacingLeft=4;spacingRight=4;overflow=hidden;rotatable=0;points=[[0,0.5],[1,0.5]];portConstraint=eastwest;whiteSpace=wrap;" parent="MmfHxSCBlfVOSuIhpBJj-74" vertex="1">
          <mxGeometry y="140" width="160" height="20" as="geometry" />
        </mxCell>
        <mxCell id="MmfHxSCBlfVOSuIhpBJj-81" value="+UpdateBook()" style="text;html=1;strokeColor=none;fillColor=none;align=left;verticalAlign=middle;spacingLeft=4;spacingRight=4;overflow=hidden;rotatable=0;points=[[0,0.5],[1,0.5]];portConstraint=eastwest;whiteSpace=wrap;" parent="MmfHxSCBlfVOSuIhpBJj-74" vertex="1">
          <mxGeometry y="160" width="160" height="20" as="geometry" />
        </mxCell>
        <mxCell id="MmfHxSCBlfVOSuIhpBJj-82" value="+Feedback()" style="text;html=1;strokeColor=none;fillColor=none;align=left;verticalAlign=middle;spacingLeft=4;spacingRight=4;overflow=hidden;rotatable=0;points=[[0,0.5],[1,0.5]];portConstraint=eastwest;whiteSpace=wrap;" parent="MmfHxSCBlfVOSuIhpBJj-74" vertex="1">
          <mxGeometry y="180" width="160" height="20" as="geometry" />
        </mxCell>
        <mxCell id="MmfHxSCBlfVOSuIhpBJj-84" value="+NewBookDemand()" style="text;html=1;strokeColor=none;fillColor=none;align=left;verticalAlign=middle;spacingLeft=4;spacingRight=4;overflow=hidden;rotatable=0;points=[[0,0.5],[1,0.5]];portConstraint=eastwest;whiteSpace=wrap;" parent="MmfHxSCBlfVOSuIhpBJj-74" vertex="1">
          <mxGeometry y="200" width="160" height="20" as="geometry" />
        </mxCell>
        <mxCell id="MmfHxSCBlfVOSuIhpBJj-85" value="&lt;b&gt;Account&lt;/b&gt;" style="swimlane;fontStyle=0;align=center;verticalAlign=top;childLayout=stackLayout;horizontal=1;startSize=30;horizontalStack=0;resizeParent=1;resizeParentMax=0;resizeLast=0;collapsible=0;marginBottom=0;html=1;whiteSpace=wrap;" parent="1" vertex="1">
          <mxGeometry x="640" y="240" width="160" height="140" as="geometry" />
        </mxCell>
        <mxCell id="MmfHxSCBlfVOSuIhpBJj-86" value="+IssueDate" style="text;html=1;strokeColor=none;fillColor=none;align=left;verticalAlign=middle;spacingLeft=4;spacingRight=4;overflow=hidden;rotatable=0;points=[[0,0.5],[1,0.5]];portConstraint=eastwest;whiteSpace=wrap;" parent="MmfHxSCBlfVOSuIhpBJj-85" vertex="1">
          <mxGeometry y="30" width="160" height="20" as="geometry" />
        </mxCell>
        <mxCell id="MmfHxSCBlfVOSuIhpBJj-87" value="&lt;font color=&quot;#000000&quot;&gt;+ReturnDate&lt;/font&gt;" style="text;html=1;strokeColor=none;fillColor=none;align=left;verticalAlign=middle;spacingLeft=4;spacingRight=4;overflow=hidden;rotatable=0;points=[[0,0.5],[1,0.5]];portConstraint=eastwest;fontColor=#808080;whiteSpace=wrap;" parent="MmfHxSCBlfVOSuIhpBJj-85" vertex="1">
          <mxGeometry y="50" width="160" height="20" as="geometry" />
        </mxCell>
        <mxCell id="MmfHxSCBlfVOSuIhpBJj-88" value="+FineAmount" style="text;html=1;strokeColor=none;fillColor=none;align=left;verticalAlign=middle;spacingLeft=4;spacingRight=4;overflow=hidden;rotatable=0;points=[[0,0.5],[1,0.5]];portConstraint=eastwest;whiteSpace=wrap;" parent="MmfHxSCBlfVOSuIhpBJj-85" vertex="1">
          <mxGeometry y="70" width="160" height="20" as="geometry" />
        </mxCell>
        <mxCell id="MmfHxSCBlfVOSuIhpBJj-89" value="+ReservedBook" style="text;html=1;strokeColor=none;fillColor=none;align=left;verticalAlign=middle;spacingLeft=4;spacingRight=4;overflow=hidden;rotatable=0;points=[[0,0.5],[1,0.5]];portConstraint=eastwest;whiteSpace=wrap;" parent="MmfHxSCBlfVOSuIhpBJj-85" vertex="1">
          <mxGeometry y="90" width="160" height="20" as="geometry" />
        </mxCell>
        <mxCell id="MmfHxSCBlfVOSuIhpBJj-91" value="" style="line;strokeWidth=1;fillColor=none;align=left;verticalAlign=middle;spacingTop=-1;spacingLeft=3;spacingRight=3;rotatable=0;labelPosition=right;points=[];portConstraint=eastwest;" parent="MmfHxSCBlfVOSuIhpBJj-85" vertex="1">
          <mxGeometry y="110" width="160" height="10" as="geometry" />
        </mxCell>
        <mxCell id="MmfHxSCBlfVOSuIhpBJj-92" value="+CalculateFine()" style="text;html=1;strokeColor=none;fillColor=none;align=left;verticalAlign=middle;spacingLeft=4;spacingRight=4;overflow=hidden;rotatable=0;points=[[0,0.5],[1,0.5]];portConstraint=eastwest;whiteSpace=wrap;" parent="MmfHxSCBlfVOSuIhpBJj-85" vertex="1">
          <mxGeometry y="120" width="160" height="20" as="geometry" />
        </mxCell>
        <mxCell id="MmfHxSCBlfVOSuIhpBJj-98" value="" style="endArrow=diamondThin;endFill=1;endSize=24;html=1;rounded=0;entryX=0;entryY=0.5;entryDx=0;entryDy=0;exitX=0.75;exitY=0;exitDx=0;exitDy=0;" parent="1" source="MmfHxSCBlfVOSuIhpBJj-9" target="MmfHxSCBlfVOSuIhpBJj-73" edge="1">
          <mxGeometry width="160" relative="1" as="geometry">
            <mxPoint x="280" y="270" as="sourcePoint" />
            <mxPoint x="440" y="270" as="targetPoint" />
          </mxGeometry>
        </mxCell>
        <mxCell id="MmfHxSCBlfVOSuIhpBJj-99" value="" style="endArrow=diamondThin;endFill=1;endSize=24;html=1;rounded=0;entryX=0.42;entryY=0.983;entryDx=0;entryDy=0;exitX=0.5;exitY=0;exitDx=0;exitDy=0;entryPerimeter=0;" parent="1" source="MmfHxSCBlfVOSuIhpBJj-74" target="MmfHxSCBlfVOSuIhpBJj-73" edge="1">
          <mxGeometry width="160" relative="1" as="geometry">
            <mxPoint x="250" y="250" as="sourcePoint" />
            <mxPoint x="370" y="201" as="targetPoint" />
          </mxGeometry>
        </mxCell>
        <mxCell id="MmfHxSCBlfVOSuIhpBJj-100" value="" style="endArrow=diamondThin;endFill=1;endSize=24;html=1;rounded=0;entryX=1;entryY=0.5;entryDx=0;entryDy=0;exitX=0.25;exitY=0;exitDx=0;exitDy=0;" parent="1" source="MmfHxSCBlfVOSuIhpBJj-85" target="MmfHxSCBlfVOSuIhpBJj-73" edge="1">
          <mxGeometry width="160" relative="1" as="geometry">
            <mxPoint x="490" y="250" as="sourcePoint" />
            <mxPoint x="454" y="211" as="targetPoint" />
          </mxGeometry>
        </mxCell>
        <mxCell id="MmfHxSCBlfVOSuIhpBJj-101" value="" style="endArrow=block;endSize=16;endFill=0;html=1;rounded=0;exitX=0.25;exitY=0;exitDx=0;exitDy=0;entryX=1;entryY=0.5;entryDx=0;entryDy=0;" parent="1" source="MmfHxSCBlfVOSuIhpBJj-61" target="MmfHxSCBlfVOSuIhpBJj-35" edge="1">
          <mxGeometry width="160" relative="1" as="geometry">
            <mxPoint x="230" y="370" as="sourcePoint" />
            <mxPoint x="390" y="370" as="targetPoint" />
          </mxGeometry>
        </mxCell>
        <mxCell id="MmfHxSCBlfVOSuIhpBJj-102" value="" style="endArrow=block;endSize=16;endFill=0;html=1;rounded=0;exitX=0.5;exitY=0;exitDx=0;exitDy=0;entryX=0.665;entryY=0.989;entryDx=0;entryDy=0;entryPerimeter=0;" parent="1" source="MmfHxSCBlfVOSuIhpBJj-50" target="MmfHxSCBlfVOSuIhpBJj-35" edge="1">
          <mxGeometry width="160" relative="1" as="geometry">
            <mxPoint x="530" y="548" as="sourcePoint" />
            <mxPoint x="290" y="420" as="targetPoint" />
          </mxGeometry>
        </mxCell>
        <mxCell id="MmfHxSCBlfVOSuIhpBJj-103" value="" style="endArrow=block;endSize=16;endFill=0;html=1;rounded=0;exitX=0.5;exitY=0;exitDx=0;exitDy=0;entryX=0.224;entryY=1.028;entryDx=0;entryDy=0;entryPerimeter=0;" parent="1" source="MmfHxSCBlfVOSuIhpBJj-37" target="MmfHxSCBlfVOSuIhpBJj-35" edge="1">
          <mxGeometry width="160" relative="1" as="geometry">
            <mxPoint x="370" y="548" as="sourcePoint" />
            <mxPoint x="236" y="430" as="targetPoint" />
          </mxGeometry>
        </mxCell>
        <mxCell id="psMkm4Wd3F4PcczeRH8z-1" value="Expeiment No. 3 Class Diagram for Library Management System" style="text;html=1;align=center;verticalAlign=middle;resizable=0;points=[];autosize=1;strokeColor=none;fillColor=none;fontStyle=1" vertex="1" parent="1">
          <mxGeometry x="200" y="750" width="390" height="30" as="geometry" />
        </mxCell>
      </root>
    </mxGraphModel>
  </diagram>
</mxfile>
